<?xml version="1.0" encoding="UTF-8" standalone="no"?>
<!-- Created with Inkscape (http://www.inkscape.org/) -->

<svg
   xmlns:dc="http://purl.org/dc/elements/1.1/"
   xmlns:cc="http://creativecommons.org/ns#"
   xmlns:rdf="http://www.w3.org/1999/02/22-rdf-syntax-ns#"
   xmlns:svg="http://www.w3.org/2000/svg"
   xmlns="http://www.w3.org/2000/svg"
   xmlns:sodipodi="http://sodipodi.sourceforge.net/DTD/sodipodi-0.dtd"
   xmlns:inkscape="http://www.inkscape.org/namespaces/inkscape"
   width="230.22466mm"
   height="63.689075mm"
   viewBox="0 0 815.75665 225.66995"
   id="svg2"
   version="1.1"
   inkscape:version="0.91 r13725"
   sodipodi:docname="sig.svg"
   inkscape:export-filename="C:\Coding Program Files\XAMPP\htdocs\lucas\assets\images\sig.png"
   inkscape:export-xdpi="110.32702"
   inkscape:export-ydpi="110.32702">
  <defs
     id="defs4">
    <filter
       style="color-interpolation-filters:sRGB"
       inkscape:label="Cross-smooth"
       id="filter4418">
      <feGaussianBlur
         in="SourceGraphic"
         stdDeviation="1.73"
         result="blur1"
         id="feGaussianBlur4420" />
      <feComposite
         in="blur1"
         in2="blur1"
         operator="in"
         result="composite1"
         id="feComposite4422" />
      <feComposite
         in="composite1"
         in2="composite1"
         k2="1.44"
         operator="arithmetic"
         result="composite2"
         id="feComposite4424"
         k1="0"
         k3="0"
         k4="0" />
      <feColorMatrix
         in="composite2"
         values="1 0 0 0 0 0 1 0 0 0 0 0 1 0 0 0 0 0 56.69 -1.83047 "
         result="colormatrix1"
         id="feColorMatrix4426" />
      <feGaussianBlur
         stdDeviation="1"
         result="blur2"
         id="feGaussianBlur4428" />
      <feColorMatrix
         in="blur2"
         values="1 0 0 0 0 0 1 0 0 0 0 0 1 0 0 0 0 0 5 -1 "
         result="colormatrix2"
         id="feColorMatrix4430" />
      <feBlend
         in="SourceGraphic"
         in2="colormatrix2"
         stdDeviation="17"
         mode="normal"
         result="blend"
         id="feBlend4432" />
      <feComposite
         in="blend"
         in2="colormatrix2"
         operator="in"
         result="composite3"
         id="feComposite4434" />
    </filter>
    <filter
       style="color-interpolation-filters:sRGB"
       inkscape:label="Cross-smooth"
       id="filter4700">
      <feGaussianBlur
         in="SourceGraphic"
         stdDeviation="2.51"
         result="blur1"
         id="feGaussianBlur4702" />
      <feComposite
         in="blur1"
         in2="blur1"
         operator="in"
         result="composite1"
         id="feComposite4704" />
      <feComposite
         k4="0"
         k3="0"
         k1="0"
         in="composite1"
         in2="composite1"
         k2="1.44"
         operator="arithmetic"
         result="composite2"
         id="feComposite4706" />
      <feColorMatrix
         in="composite2"
         values="1 0 0 0 0 0 1 0 0 0 0 0 1 0 0 0 0 0 56.69 -21.6562 "
         result="colormatrix1"
         id="feColorMatrix4708" />
      <feGaussianBlur
         stdDeviation="1"
         result="blur2"
         id="feGaussianBlur4710" />
      <feColorMatrix
         in="blur2"
         values="1 0 0 0 0 0 1 0 0 0 0 0 1 0 0 0 0 0 5 -1 "
         result="colormatrix2"
         id="feColorMatrix4712" />
      <feBlend
         in="SourceGraphic"
         in2="colormatrix2"
         stdDeviation="17"
         mode="normal"
         result="blend"
         id="feBlend4714" />
      <feComposite
         in="blend"
         in2="colormatrix2"
         operator="in"
         result="composite3"
         id="feComposite4716" />
    </filter>
    <filter
       style="color-interpolation-filters:sRGB"
       inkscape:label="Cross-smooth"
       id="filter4784">
      <feGaussianBlur
         in="SourceGraphic"
         stdDeviation="2.51"
         result="blur1"
         id="feGaussianBlur4786" />
      <feComposite
         in="blur1"
         in2="blur1"
         operator="in"
         result="composite1"
         id="feComposite4788" />
      <feComposite
         in="composite1"
         in2="composite1"
         k2="1.44"
         operator="arithmetic"
         result="composite2"
         id="feComposite4790"
         k1="0"
         k3="0"
         k4="0" />
      <feColorMatrix
         in="composite2"
         values="1 0 0 0 0 0 1 0 0 0 0 0 1 0 0 0 0 0 56.69 -21.66 "
         result="colormatrix1"
         id="feColorMatrix4792" />
      <feGaussianBlur
         stdDeviation="1"
         result="blur2"
         id="feGaussianBlur4794" />
      <feColorMatrix
         in="blur2"
         values="1 0 0 0 0 0 1 0 0 0 0 0 1 0 0 0 0 0 5 -1 "
         result="colormatrix2"
         id="feColorMatrix4796" />
      <feBlend
         in="SourceGraphic"
         in2="colormatrix2"
         stdDeviation="17"
         mode="normal"
         result="blend"
         id="feBlend4798" />
      <feComposite
         in="blend"
         in2="colormatrix2"
         operator="in"
         result="composite3"
         id="feComposite4800" />
    </filter>
  </defs>
  <sodipodi:namedview
     id="base"
     pagecolor="#ffffff"
     bordercolor="#666666"
     borderopacity="1.0"
     inkscape:pageopacity="0.0"
     inkscape:pageshadow="2"
     inkscape:zoom="1"
     inkscape:cx="105.38027"
     inkscape:cy="216.41504"
     inkscape:document-units="px"
     inkscape:current-layer="layer1"
     showgrid="false"
     inkscape:window-width="686"
     inkscape:window-height="403"
     inkscape:window-x="8"
     inkscape:window-y="288"
     inkscape:window-maximized="0"
     fit-margin-top="0"
     fit-margin-left="0"
     fit-margin-right="0"
     fit-margin-bottom="0" />
  <metadata
     id="metadata7">
    <rdf:RDF>
      <cc:Work
         rdf:about="">
        <dc:format>image/svg+xml</dc:format>
        <dc:type
           rdf:resource="http://purl.org/dc/dcmitype/StillImage" />
        <dc:title></dc:title>
      </cc:Work>
    </rdf:RDF>
  </metadata>
  <g
     inkscape:label="Layer 1"
     inkscape:groupmode="layer"
     id="layer1"
     transform="translate(-37.853856,-553.01719)">
    <g
       id="g4176"
       style="stroke:#ffffff;stroke-opacity:1">
      <g
         transform="matrix(0.67658024,0,0,0.67658024,216.53545,113.14386)"
         style="stroke:#ffffff;stroke-width:4.69999981;stroke-miterlimit:4;stroke-dasharray:none;stroke-opacity:1;filter:url(#filter4784)"
         id="g4470">
        <path
           style="fill:none;fill-rule:evenodd;stroke:#ffffff;stroke-width:4.69999981;stroke-linecap:butt;stroke-linejoin:miter;stroke-miterlimit:4;stroke-dasharray:none;stroke-opacity:1"
           d="m 134,794.3622 c 1.19752,-8.38265 0.0585,-5.68011 4,-13 1.2741,-2.36619 2.94137,-4.52987 4,-7 0.95592,-2.23049 1.02733,-4.77675 2,-7 3.3102,-7.56616 8.59936,-14.08471 13,-21 1.0435,-1.63978 1.9565,-3.36021 3,-5 1.29049,-2.02791 2.76331,-3.93884 4,-6 0.76696,-1.27827 1.20992,-2.73587 2,-4 1.39423,-2.23076 5.65523,-7.15094 7,-9 1.41379,-1.94396 2.62157,-4.03081 4,-6 0.95577,-1.36538 2.0755,-2.61325 3,-4 0.41345,-0.62017 0.61652,-1.36086 1,-2 1.69612,-2.82686 1.37192,-2.37192 3,-4 0.33333,-0.33333 0.57836,-0.78918 1,-1 0.20513,-0.10256 2.85897,-0.14102 3,0 0.20444,0.20444 -0.19825,2.60351 0,3 0.21082,0.42164 0.66667,0.66667 1,1 0,1.33334 -0.2192,2.68481 0,4 0.12253,0.73522 0.81922,1.2769 1,2 0.16169,0.64677 -0.13074,1.34628 0,2 0.20672,1.03363 0.82671,1.96025 1,3 0.1644,0.9864 -0.19612,2.01942 0,3 0.14618,0.73089 0.85382,1.26912 1,2 0.19612,0.98058 0,2 0,3 0,1.66667 0,3.33334 0,5 0,2.33334 0,4.66667 0,7 0,0.66667 0,1.33334 0,2 0,0.66667 0.16169,1.35324 0,2 -0.18078,0.72311 -0.83831,1.2724 -1,2 -0.51131,2.3009 -0.61251,4.67505 -1,7 -0.27943,1.67655 -0.66667,3.33334 -1,5 -0.33333,1.66667 -0.5116,3.37201 -1,5 -0.51581,1.71935 -1.52769,3.2682 -2,5 -0.53349,1.95615 -0.47757,4.04088 -1,6 -0.8148,3.05551 -2.07002,5.97756 -3,9 -0.40418,1.3136 -0.66667,2.66667 -1,4 -0.66667,2 -1.33333,4 -2,6 -0.66667,2 -1.4568,3.963 -2,6 -0.79184,2.96942 -1.15573,6.04507 -2,9 -0.49314,1.72599 -1.38655,3.31302 -2,5 -0.72046,1.98126 -1.27954,4.01874 -2,6 -1.95193,5.36782 -2.40835,5.16394 -4,11 -4.79333,17.57553 4.59156,-11.6268 -4,12 -1.63316,4.49118 -1.63471,9.44904 -3,14 -0.51581,1.71935 -1.39626,3.30952 -2,5 -1.41812,3.97074 -2.48641,8.06467 -4,12 -3.38906,8.81156 -4.06316,9.67896 -7,18 -6.32279,17.91456 1.15847,-0.31694 -9,20 -0.80277,1.60555 -1.29289,3.35009 -2,5 -0.88083,2.05527 -2,4 -3,6 -0.33333,0.66667 -0.47295,1.47296 -1,2 -0.2357,0.23571 0,-0.66666 0,-1 0,-0.33333 -0.10541,-0.68377 0,-1 0.2357,-0.7071 0.70639,-1.31491 1,-2 0.70711,-1.64991 1.28051,-3.35544 2,-5 2.81663,-6.438 5.72821,-12.7836 9,-19 1.94526,-3.69599 3.97164,-7.34894 6,-11 4.07546,-7.33582 4.8061,-7.61601 8,-16 1.50101,-3.94014 2.46356,-8.07353 4,-12 1.46768,-3.75075 3.39406,-7.30633 5,-11 1.72781,-3.97397 3.27219,-8.02603 5,-12 1.60594,-3.69366 3.56616,-7.23618 5,-11 1.2389,-3.25211 1.79691,-6.73447 3,-10 1.13493,-3.08053 2.72603,-5.97431 4,-9 4.04737,-9.61249 4.50454,-12.0101 9,-22 1.22347,-2.71882 2.7392,-5.29828 4,-8 2.14707,-4.60085 3.87236,-9.39012 6,-14 0.93704,-2.03026 2.1973,-3.91297 3,-6 5.15639,-13.40662 -2.30899,-0.48501 7,-16 3.44835,-5.74725 3.5813,-5.21382 7,-10 0.69856,-0.97798 1.23059,-2.07671 2,-3 0.90536,-1.08643 2,-2 3,-3 1,-1 1.89568,-2.11654 3,-3 1.16405,-0.93124 2.75965,-1.1731 4,-2 3.31658,-3.31658 -0.94281,0.47141 2,-1 0.42164,-0.21081 0.55279,-0.85092 1,-1 0.63245,-0.21081 1.33333,0 2,0 0.33333,0 0.70186,-0.14907 1,0 0.42164,0.21082 0.57836,0.78919 1,1 0.29814,0.14908 0.7643,-0.2357 1,0 0.4714,0.47141 -0.29814,1.40372 0,2 0.21082,0.42164 0.85093,0.55279 1,1 0.15259,0.45777 0,4.44185 0,5 0,1.99911 0.25997,6.44018 0,8 -0.12254,0.73522 -0.89459,1.26214 -1,2 -0.2357,1.64992 0,3.33334 0,5 0,0.66667 0.16169,1.35324 0,2 -0.18078,0.72311 -0.72318,1.30796 -1,2 -0.39148,0.9787 -0.74435,1.97738 -1,3 -0.82446,3.29785 -0.92503,6.7751 -2,10 -0.47141,1.41422 -1.39457,2.63777 -2,4 -1.45808,3.28069 -2.77311,6.62604 -4,10 -0.72046,1.98126 -1.27954,4.01875 -2,6 -1.2269,3.37397 -2.54192,6.71932 -4,10 -0.60544,1.36223 -1.5286,2.58579 -2,4 -0.86923,2.60768 -1.19164,5.37282 -2,8 -0.5279,1.71568 -1.36972,3.31924 -2,5 -0.37012,0.98698 -0.66667,2 -1,3 -1,3 -2,6 -3,9 -0.66667,2 -1.24321,4.03234 -2,6 -2.14936,5.58834 -3.5933,7.3732 -5,13 -0.49176,1.96705 -0.54408,4.02434 -1,6 -2.40574,10.42486 -1.1634,3.4902 -4,12 -0.43461,1.30384 -0.56539,2.69616 -1,4 -0.56765,1.70294 -1.43235,3.29706 -2,5 -1.02656,3.07967 -1.20743,5.82971 -2,9 -0.25566,1.02262 -0.79328,1.96638 -1,3 -0.13074,0.65372 0.16169,1.35324 0,2 -0.18078,0.7231 -0.7643,1.2929 -1,2 -0.43461,1.30384 -0.66667,2.66667 -1,4 -0.72786,2.91144 -1.57682,6.03775 -2,9 -0.0686,0.47996 0.19411,4.61178 0,5 -1.52478,3.04956 -0.79276,-1.82894 -2,3 -0.22031,0.88124 0.2958,5.4084 0,6 -0.21082,0.42164 -0.88567,0.54267 -1,1 -0.24254,0.97015 0.24253,2.02986 0,3 -0.11433,0.45733 -0.66667,0.66667 -1,1 0,1 0,2 0,3 0,0.33334 0,-0.66666 0,-1 0,-0.66666 0,-1.33333 0,-2 0,-4.20277 -0.21082,0.44869 1,-5 0.43984,-1.9793 0.60236,-4.01178 1,-6 0.6027,-3.0135 1.36689,-5.99274 2,-9 1.97645,-9.38814 2.18487,-12.34812 5,-22 1.18058,-4.04771 2.70556,-7.98724 4,-12 13.8531,-42.94462 -0.1928,-0.87772 10,-30 1.04466,-2.98474 1.85384,-6.05274 3,-9 1.18989,-3.05972 2.68413,-5.9923 4,-9 2.03503,-4.65149 3.83815,-9.40607 6,-14 1.58685,-3.37206 3.33333,-6.66666 5,-10 1,-2 1.92925,-4.03696 3,-6 0.93072,-1.70632 2.13077,-3.26154 3,-5 0.80277,-1.60554 1.14043,-3.42413 2,-5 3.78987,-6.94809 4.25288,-5.4727 9,-12 1.1432,-1.5719 1.83381,-3.44508 3,-5 0.84853,-1.13137 2,-2 3,-3 2.66667,-2.66666 5.33333,-5.33333 8,-8 1,-1 1.91357,-2.09464 3,-3 1.16917,-1.81475 3.44508,-1.83381 5,-3 5.36981,-4.02735 -1.82865,-0.26854 5,-3 3.44839,-1.37935 0.57789,-0.89447 5,-2 0.64676,-0.16169 1.33333,0 2,0 0.33333,0 0.70186,-0.14907 1,0 2.21105,1.10553 0.31032,0.62065 1,2 0.42164,0.84328 1.57836,1.15673 2,2 0.14907,0.29815 -0.10541,0.68378 0,1 0.2357,0.70711 0.81922,1.2769 1,2 0.16169,0.64677 0,1.33334 0,2 0,0.66667 0,1.33334 0,2 0,2.33334 0,4.66667 0,7 0,2 0,4 0,6 0,0.66667 0,1.33334 0,2 0,0.66667 0.16169,1.35324 0,2 -0.47141,1.88562 -2.5286,3.11439 -3,5 -0.40423,1.61691 0.40422,3.3831 0,5 -0.29149,1.16597 -1.46252,1.92504 -2,3 -0.47141,0.94281 -0.58477,2.03114 -1,3 -0.58722,1.37018 -1.41278,2.62982 -2,4 -2.59645,6.05839 1.14347,-0.28694 -3,8 -1.07497,2.14994 -2.92503,3.85007 -4,6 -0.80277,1.60555 -1.38655,3.31302 -2,5 -0.72046,1.98126 -1.05719,4.11439 -2,6 -0.74536,1.49072 -2.11667,2.58667 -3,4 -0.79008,1.26412 -1.33333,2.66667 -2,4 -1.33333,2.66667 -2.78913,5.27554 -4,8 -0.72904,1.64035 -1.19723,3.39446 -2,5 -0.53748,1.07497 -1.33333,2 -2,3 -0.66667,2 -1.12763,4.08078 -2,6 -0.80429,1.76944 -2.21061,3.22387 -3,5 -4.92169,11.07381 3.47615,-3.33326 -3,8 -0.59629,1.0435 -1.46252,1.92504 -2,3 -0.0166,0.0333 -2.8269,6.78833 -3,8 -0.18856,1.31994 0,2.66667 0,4 0,3.33334 0,6.66667 0,10 0,2 0,4 0,6 0,1 -0.31623,2.05132 0,3 0.14907,0.44722 0.78918,0.57837 1,1 0.14907,0.29815 -0.14907,0.70186 0,1 0.21082,0.42164 0.66667,0.66667 1,1 0.33333,0.33334 0.60777,0.73851 1,1 0.62017,0.41345 1.37983,0.58655 2,1 1.27329,0.84887 1.1904,1.65067 2,3 0.33584,0.55974 2.8263,4.41315 4,5 0.29814,0.14907 0.7643,-0.2357 1,0 0.2357,0.23571 -0.2357,0.7643 0,1 0.2357,0.23571 0.70186,-0.14907 1,0 0.42164,0.21082 0.57836,0.78918 1,1 0.30433,0.15217 2.54964,0 3,0 2,0 4,0 6,0 0.4715,0 4.95468,0.0453 5,0 0.2357,-0.2357 -0.14907,-0.70185 0,-1 0.76579,-1.53157 1.78202,-0.78201 3,-2 0.52705,-0.52704 0.61652,-1.36086 1,-2 0.61835,-1.03058 1.40371,-1.9565 2,-3 0.7396,-1.2943 1.13354,-2.78695 2,-4 0.82199,-1.15079 2.178,-1.8492 3,-3 3.46813,-4.85538 0.8238,-2.6476 3,-7 3.7719,-7.54381 1.8269,-2.44708 5,-8 5.41606,-9.4781 -2.45563,2.27417 6,-9 1.44222,-1.92296 2.7633,-3.93884 4,-6 0.10391,-0.17318 1.96412,-3.96412 2,-4 0.52705,-0.52704 1.47295,-0.47295 2,-1 0.52705,-0.52704 0.37983,-1.58655 1,-2 0.10237,-0.0682 3.4308,0 4,0 0.33333,0 0.70186,-0.14907 1,0 4.57661,2.28831 -4.24342,-0.41447 3,2 1,0.33334 1.43096,-0.7071 2,1 0.3504,1.0512 -0.25633,4.97471 0,6 0.11433,0.45733 0.78918,0.57837 1,1 0.15217,0.30434 0,2.54965 0,3 0,2 0,4 0,6 0,0.89373 -0.15934,4.68133 0,5 0.21082,0.42164 0.78918,0.57837 1,1 0.29814,0.59629 -0.29814,1.40372 0,2 0.33333,0.66667 1.66667,1.66667 2,1 0.29814,-0.59628 -0.29814,-1.40371 0,-2 0.14907,-0.29814 0.85093,0.29815 1,0 0.29814,-0.59628 -0.21082,-1.36754 0,-2 0.14907,-0.44721 0.66667,-0.66666 1,-1 0,-1 0,-2 0,-3 0,-1.66666 0,-3.33333 0,-5 0,-0.66666 0,-1.33333 0,-2 0,-0.33333 -0.14907,-0.70185 0,-1 0.21082,-0.42163 0.85093,-0.55278 1,-1 0.18962,-0.56886 0,-4.05816 0,-5 0,-0.52292 0.13147,-3.73706 0,-4 -0.21082,-0.42163 -0.78918,-0.57836 -1,-1 -0.14907,-0.29814 0.2357,-0.76429 0,-1 -0.2357,-0.2357 -0.7643,0.23571 -1,0 -0.2357,-0.2357 0.14907,-0.70185 0,-1 -0.21082,-0.42163 -0.78918,-0.57836 -1,-1 -0.14907,-0.29814 0.2357,-0.76429 0,-1 -0.2357,-0.2357 -0.66667,0 -1,0 -0.33333,0 -0.66667,0 -1,0 -0.52292,0 -3.73706,-0.13147 -4,0 -1.14642,0.57321 -1.39101,2.08652 -2,3 -0.78447,1.1767 -2.15147,1.86863 -3,3 -0.44721,0.59629 -0.66667,1.33334 -1,2 -0.66667,1.33334 -1.2604,2.7057 -2,4 -5.73172,8.59759 1.14017,-2.28035 -3,6 -0.53749,1.07497 -1.52657,1.89533 -2,3 -0.54139,1.26325 -0.45861,2.73676 -1,4 -0.47343,1.10468 -1.46252,1.92504 -2,3 -0.47141,0.94281 -0.66667,2 -1,3 -0.66667,1 -1.46252,1.92504 -2,3 -0.47141,0.94281 -0.66667,2 -1,3 -0.33333,1 -0.66667,2 -1,3 -0.33333,1 -0.79328,1.96638 -1,3 -0.13075,0.65372 0,1.33334 0,2 0,0.33334 0.14907,0.70186 0,1 -0.21082,0.42164 -0.82493,0.56232 -1,1 -0.51043,1.27607 -0.77406,2.64433 -1,4 -0.0625,0.37503 -0.18363,4.44912 0,5 0.2357,0.70711 0.72318,1.30796 1,2 1.0649,2.66226 0.95658,3.95659 3,6 1.14415,1.14415 1.18377,1.39459 3,2 0.5642,0.18807 2.34289,0 3,0 0.33333,0 0.7643,0.23571 1,0 0.2357,-0.2357 -0.2357,-0.76429 0,-1 0.2357,-0.2357 0.70186,0.14907 1,0 0.42164,-0.21082 0.60777,-0.73851 1,-1 0.62017,-0.41345 1.33333,-0.66666 2,-1 0.66667,-0.33333 1.2769,-0.81922 2,-1 0.64676,-0.16169 1.40371,0.29815 2,0 0.29814,-0.14907 -0.2357,-0.76429 0,-1 0.2357,-0.2357 0.7643,0.23571 1,0 0.2357,-0.2357 -0.2357,-0.76429 0,-1 0.2357,-0.2357 0.66667,0 1,0 0.66667,-0.66666 1.43431,-1.24575 2,-2 0.44721,-0.59628 0.58655,-1.37982 1,-2 0.52298,-0.78446 1.57836,-1.15672 2,-2 0.14907,-0.29814 -0.2357,-0.76429 0,-1 0.2357,-0.2357 0.70186,0.14907 1,0 0.42164,-0.21082 0.66667,-0.66666 1,-1 0.66667,-0.66666 1.41103,-1.26379 2,-2 0.75079,-0.93848 1.21784,-2.08748 2,-3 3.37573,-3.93835 5.25161,-4.60257 8,-9 0.79007,-1.26412 1.23303,-2.72172 2,-4 0.24253,-0.40422 0.69821,-0.63785 1,-1 1.36639,-1.63967 2.5945,-3.39372 4,-5 0.93126,-1.0643 2.09464,-1.91357 3,-3 4.61593,-5.53911 -1.29387,-0.70613 6,-8 1.17851,-1.17851 2.82149,-1.82149 4,-3 1.50923,-1.50923 2.57218,-3.41353 4,-5 2.52282,-2.80313 5.51662,-5.16185 8,-8 1.40549,-1.60628 2.5945,-3.39372 4,-5 0.93126,-1.0643 2.07964,-1.92625 3,-3 1.08465,-1.26542 1.82149,-2.82149 3,-4 1.17851,-1.17851 2.82149,-1.82149 4,-3 0.84984,-0.84983 1.27889,-2.03852 2,-3 1.28062,-1.7075 2.5945,-3.39372 4,-5 0.93126,-1.0643 2.06873,-1.93569 3,-3 4.15949,-4.7537 4.95165,-6.6022 9,-12 1.28062,-1.7075 2.66667,-3.33333 4,-5 1.66666,-2.33333 3.31345,-4.68099 5,-7 0.98028,-1.34789 2.19059,-2.54307 3,-4 0.87175,-1.56916 1.2572,-3.36584 2,-5 0.92529,-2.03564 1.92925,-4.03696 3,-6 8.30089,-15.2183 -2.6441,6.2882 6,-11 0.66666,-1.33333 1.47657,-2.6042 2,-4 1.83219,-4.88583 0.27183,-4.23943 2,-10 0.42835,-1.42784 1.52859,-2.58578 2,-4 1.31111,-3.93335 1,-7.95325 1,-12 0,-0.80503 0.20922,-3.37234 0,-4 -0.2357,-0.7071 -0.66667,-1.33333 -1,-2 -0.33334,-0.66666 -0.58655,-1.37982 -1,-2 -0.26149,-0.39223 -0.85093,-0.55278 -1,-1 -0.002,-0.005 9.5e-4,-2.99904 0,-3 -0.2357,-0.2357 -0.7643,0.23571 -1,0 -0.2357,-0.2357 0.2357,-0.76429 0,-1 -0.2357,-0.2357 -0.7643,0.23571 -1,0 -0.2357,-0.2357 0.2357,-0.76429 0,-1 -0.2357,-0.2357 -0.7643,-0.2357 -1,0 -0.2357,0.23571 0.2357,0.7643 0,1 -0.2357,0.23571 -0.70186,-0.14907 -1,0 -1.01803,0.50902 -1.59401,2.18801 -2,3 -1,2 -1.8906,4.05855 -3,6 -2.62443,4.59275 -2.60845,2.42323 -5,9 -7.03056,19.33404 6.33479,-10.66957 -4,10 -1.13529,2.27059 -1.94953,4.68896 -3,7 -0.61686,1.3571 -1.5286,2.58579 -2,4 -0.86923,2.60768 -1.24487,5.35703 -2,8 -1.15833,4.05414 -2.97738,7.90952 -4,12 -1.58515,6.34059 -1.94689,11.84067 -4,18 -0.80277,2.40832 -2.19723,4.59168 -3,7 -1.96921,5.90763 -3.03079,12.09238 -5,18 -0.56765,1.70294 -1.50686,3.27402 -2,5 -4.73005,16.55516 0.53089,2.3135 -4,15 -0.54507,1.5262 -3.88685,10.49541 -5,13 -0.60544,1.36223 -1.38314,2.64291 -2,4 -1.05048,2.31105 -1.94953,4.68896 -3,7 -0.61686,1.3571 -1.47658,2.60421 -2,4 -0.48257,1.28686 -0.66667,2.66667 -1,4 -0.66667,1.33334 -1.41278,2.62982 -2,4 -0.41523,0.96887 -0.47703,2.08479 -1,3 -0.8269,1.44708 -2.1731,2.55293 -3,4 -0.52298,0.91521 -0.45768,2.09613 -1,3 -0.48507,0.80846 -1.33333,1.33334 -2,2 -1.33333,1.33334 -2.66667,2.66667 -4,4 -0.66667,0.66667 -1.47703,1.21554 -2,2 -1.4755,2.21325 -0.40483,2.26989 -3,4 -0.27735,0.1849 -0.7643,-0.2357 -1,0 -0.2357,0.23571 0.2357,0.7643 0,1 -0.2357,0.23571 -0.7643,-0.2357 -1,0 -0.2357,0.23571 0.33333,1 0,1 -0.33333,0 0,-0.66666 0,-1 0,-1 0,-2 0,-3 0,-2 0,-4 0,-6 0,-0.33333 0,-0.66666 0,-1 0,-0.33333 -0.14907,-0.70185 0,-1 0.21082,-0.42163 0.82492,-0.56231 1,-1 0.51043,-1.27607 0.38536,-2.77072 1,-4 0.74535,-1.49071 2.0755,-2.61325 3,-4 0.41345,-0.62017 0.53438,-1.41797 1,-2 0.88345,-1.10431 2,-2 3,-3 1.66667,-1.66666 3.21041,-3.46607 5,-5 1.62054,-1.38903 3.49077,-2.49077 5,-4 0.52704,-0.52704 0.40371,-1.55278 1,-2 0.84327,-0.63245 2.08479,-0.47702 3,-1 1.44707,-0.8269 2.61325,-2.0755 4,-3 1.24035,-0.82689 2.72172,-1.23303 4,-2 1.03058,-0.61834 1.92503,-1.46251 3,-2 0.29814,-0.14907 0.7643,0.23571 1,0 0.2357,-0.2357 -0.2357,-0.76429 0,-1 0.2357,-0.2357 0.70186,0.14907 1,0 0.42164,-0.21082 0.57836,-0.78918 1,-1 0.36163,-0.18081 4.30446,0 5,0 0.33333,0 0.7643,0.23571 1,0 0.2357,-0.2357 -0.2357,-0.76429 0,-1 0.2357,-0.2357 0.66667,0 1,0 0.69554,0 4.63836,-0.18081 5,0 2.21105,1.10553 0.31032,0.62065 1,2 0.0858,0.17156 2.87577,2.95859 3,3 0.94868,0.31623 2,0 3,0 2.33333,0 4.66666,0 7,0 0.45036,0 2.69566,0.15217 3,0 0.84327,-0.42163 1.10557,-1.70185 2,-2 0.63245,-0.21082 1.36754,0.21082 2,0 0.44721,-0.14907 0.55278,-0.85093 1,-1 0.63245,-0.21082 1.35324,0.16169 2,0 0.7231,-0.18077 1.29289,-0.76429 2,-1 0.63245,-0.21082 1.52859,0.47141 2,0 0.2357,-0.2357 -0.2357,-0.76429 0,-1 0.2357,-0.2357 0.70186,0.14907 1,0 0.42164,-0.21082 0.57836,-0.78918 1,-1 0.29814,-0.14907 0.7643,0.23571 1,0 0.2357,-0.2357 0,-0.66666 0,-1 0,-0.33333 0.33333,-1 0,-1 -2.08088,0 -0.40237,1.40237 -1,2 -0.2357,0.23571 -0.7643,-0.2357 -1,0 -0.2357,0.23571 0.2357,0.7643 0,1 -0.52705,0.52705 -1.33334,0.66667 -2,1 -0.66667,0.66667 -1.41103,1.26379 -2,2 -0.75079,0.93849 -1.06151,2.24921 -2,3 -0.82311,0.65849 -2.05719,0.5286 -3,1 -0.42164,0.21082 -0.66667,0.66667 -1,1 -1,1 -1.89569,2.11655 -3,3 -0.58203,0.46562 -1.33334,0.66667 -2,1 -1,1.33334 -1.82149,2.82149 -3,4 -3.30534,3.30535 -2.52602,0.53643 -5,4 -4.03687,5.65162 -2.11716,3.2929 -4,8 -1.7323,4.33074 -0.91727,-0.5791 -2,7 -0.0943,0.65997 0,1.33334 0,2 0,1 0,2 0,3 0,0.45036 -0.15217,2.69567 0,3 0.21082,0.42164 0.82492,0.56231 1,1 2.68818,6.72046 -1.04678,2.30215 3,5 0.39223,0.26149 0.55278,0.85093 1,1 0.21044,0.0702 4.47989,0.13003 5,0 1.02262,-0.25565 2,-0.66666 3,-1 1,-0.33333 2.05719,-0.52859 3,-1 0.42164,-0.21082 0.63189,-0.70551 1,-1 5.94281,-4.75424 2.14913,-1.14913 6,-5 4.84983,-4.84983 2.95405,-2.43107 6,-7 0.66666,-1 1.46251,-1.92503 2,-3 1.93267,-3.86534 1.70177,-4.53806 3,-8 0.63028,-1.68076 1.29289,-3.35008 2,-5 0.29361,-0.68509 0.7643,-1.29289 1,-2 0.43461,-1.30384 0.77405,-2.64433 1,-4 0.10884,-0.65306 -0.22734,-3.31799 0,-4 3.10044,-6.20087 0.12732,0.49072 1,-3 1.10541,-4.42163 1,-1.59634 1,-4 0,-0.33333 0,-1.33333 0,-1 0,0.66667 0,1.33334 0,2 0,0.33334 0.10541,0.68378 0,1 -0.2357,0.70711 -0.72318,1.30796 -1,2 -0.58346,1.45864 -1.85412,5.68707 -2,7 -0.18405,1.65648 0,3.33334 0,5 0,4 0,8 0,12 0,0.33334 0,0.66667 0,1 0,0.33334 -0.14907,0.70186 0,1 0.21082,0.42164 0.73851,0.60777 1,1 0.41345,0.62018 0.47295,1.47296 1,2 0.2357,0.23571 0.7643,-0.2357 1,0 0.2357,0.23571 -0.2357,0.7643 0,1 0.2357,0.23571 0.7643,-0.2357 1,0 0.2357,0.23571 0,0.66667 0,1 0.33333,0 0.70186,-0.14907 1,0 0.42164,0.21082 0.57836,0.78918 1,1 0.20513,0.10257 2.85897,0.14103 3,0 0.2357,-0.2357 -0.2357,-0.76429 0,-1 0.2357,-0.2357 0.70186,0.14907 1,0 0.41375,-0.20687 2.71742,-2.57613 3,-3 0.41345,-0.62017 0.53438,-1.41797 1,-2 0.88345,-1.10431 2.11655,-1.89568 3,-3 0.46562,-0.58202 0.61652,-1.36086 1,-2 0.61835,-1.03058 1.46251,-1.92503 2,-3 0.4714,-0.94281 0.52859,-2.05719 1,-3 1.14105,-2.28211 2.25162,-2.75486 3,-5 0.43461,-1.30384 0.45861,-2.73675 1,-4 0.64523,-1.50554 2.55912,-3.23647 3,-5 0.16169,-0.64676 -0.16169,-1.35324 0,-2 0.18077,-0.7231 0.7643,-1.29289 1,-2 0.10541,-0.31622 -0.14907,-0.70185 0,-1 0.21082,-0.42163 0.66666,-0.66666 1,-1 0.33333,-0.66666 0.72318,-1.30795 1,-2 0.39148,-0.9787 0.52859,-2.05719 1,-3 1.4714,-2.94281 1,1.55229 1,-3 0,-2.76919 1,0.76919 1,-2 0,-0.33333 0,-1.33333 0,-1 0,0.66667 0,1.33334 0,2 0,0.33334 0.2357,0.7643 0,1 -0.2357,0.23571 -0.8151,-0.27735 -1,0 -0.58471,0.87706 -0.66667,2 -1,3 -0.66667,2 -1.21704,4.0426 -2,6 -0.55364,1.38409 -1.44637,2.61591 -2,4 -0.78296,1.9574 -1.27954,4.01874 -2,6 -0.61345,1.68698 -1.52769,3.2682 -2,5 -2.64877,2.72998 -0.26792,6.07167 -1,9 -0.11433,0.45733 -0.90755,0.53775 -1,1 -0.26149,1.30744 0,2.66667 0,4 0,1.66667 0,3.33334 0,5 0,0.33334 0,0.66667 0,1 0,0.33334 -0.2357,0.7643 0,1 0.2357,0.23571 0.7643,-0.2357 1,0 0.2357,0.23571 -0.2357,0.7643 0,1 0.2357,0.23571 0.7643,-0.2357 1,0 0.2357,0.23571 -0.2357,0.7643 0,1 0.2357,0.23571 0.66666,0 1,0 0.33333,0 0.66666,0 1,0 0.33333,0 0.70186,0.14907 1,0 0.42164,-0.21082 0.66666,-0.66666 1,-1 0.33333,-0.33333 0.66666,-0.66666 1,-1 1,-1 2,-2 3,-3 0.66666,-0.66666 1.39643,-1.27571 2,-2 2.63299,-3.15959 4.5469,-6.7292 7,-10 1.28062,-1.7075 2.71937,-3.2925 4,-5 3.89679,-5.19572 -0.0694,-0.91667 5,-7 0.60357,-0.72428 1.47702,-1.21553 2,-2 6.73574,-10.10361 0.0154,-0.0463 2,-6 0.14907,-0.44721 0.85093,-0.55278 1,-1 0.21082,-0.63245 -0.21082,-1.36754 0,-2 1.2357,-3.7071 1,1.21895 1,-2 0,-0.33333 0,-1.33333 0,-1 0,1.03993 0.19665,5.21339 0,6 0.60273,1.80994 -1.61994,1.85983 -2,3 -0.21082,0.63246 0,1.33334 0,2 0,0.33334 0.14907,0.70186 0,1 -0.21082,0.42164 -0.78918,0.57837 -1,1 -0.94281,1.88562 -1.05719,4.11439 -2,6 -0.53749,1.07497 -1.46252,1.92504 -2,3 -0.14758,0.29516 0,5.96979 0,7 0,1 0,2 0,3 0,0.33334 -0.2357,0.7643 0,1 0.4714,0.47141 1.52859,-0.4714 2,0 0.2357,0.23571 -0.2357,0.7643 0,1 0.5,0.5 2.5,-0.5 3,0 0,2.66667 -0.33334,-0.33333 1,1 0.4714,0.47141 -0.47141,1.5286 0,2 0.0402,0.0402 3.63276,0 4,0 0.33333,0 0.7643,0.23571 1,0 0.2357,-0.2357 -0.29814,-0.85093 0,-1 0.59628,-0.29814 1.36754,0.21082 2,0 0.44721,-0.14907 0.60777,-0.73851 1,-1 -0.11388,-1.89442 2.33333,-0.66666 3,-1 0.42163,-0.21082 0.60777,-0.73851 1,-1 0.62017,-0.41345 1.37982,-0.58655 2,-1 0.39223,-0.26149 0.62287,-0.71715 1,-1 0.96148,-0.72111 2.06151,-1.24921 3,-2 0.73621,-0.58896 1.33333,-1.33333 2,-2 2,-2 4,-4 6,-6 0.66666,-0.66666 1.33333,-1.33333 2,-2 0.33333,-0.33333 0.88567,-0.54267 1,-1 0.24253,-0.97014 -0.31623,-2.05131 0,-3 0.10541,-0.31622 0.70186,0.14907 1,0 0.42163,-0.21082 0.66666,-0.66666 1,-1 1,-1 2.15147,-1.86863 3,-3 0.89443,-1.19257 1.10557,-2.80743 2,-4 0.56568,-0.75424 1.33333,-1.33333 2,-2 0.66666,-0.66666 1.24575,-1.43431 2,-2 0.97438,-0.73079 2.38827,-0.77655 3,-2 0.14907,-0.29814 0.33333,-1 0,-1 -0.19291,0 -1.51446,1.67631 -2,2 -0.62018,0.41345 -1.33334,0.66667 -2,1 -3.16853,1.58427 -5.40372,2.40372 -8,5 -0.84984,0.84984 -1.21785,2.08749 -2,3 -1.22715,1.43167 -2.75831,2.58093 -4,4 -4.28647,4.89882 -7.29404,10.74482 -9,17 -1.19612,4.38576 -1,4.23864 -1,8 0,0.33334 -0.2357,0.7643 0,1 0.2357,0.23571 0.66666,0 1,0 0.33333,0 0.70186,0.14907 1,0 0.42163,-0.21082 0.60777,-0.73851 1,-1 0.62017,-0.41345 1.33333,-0.66666 2,-1 2.2715,-1.13575 7.24208,-3.49321 9,-5 0.91251,-0.78215 1.33333,-2 2,-3 1.33333,-2 2.58621,-4.05604 4,-6 15.10565,-20.77027 -7.12589,11.60143 7,-11 0.49969,-0.7995 1.47702,-1.21553 2,-2 1.6476,-2.4714 2.11111,-4.33333 3,-7 0.33333,-1 0.74434,-1.97738 1,-3 0.0808,-0.32338 -0.2357,-0.76429 0,-1 0.2357,-0.2357 0.7643,-0.2357 1,0 0.2357,0.23571 0,0.66667 0,1 0,0.33334 0,0.66667 0,1 0,2 0,4 0,6 0,1 0,2 0,3 0,0.66667 -0.21082,1.36755 0,2 0.14907,0.44722 0.94153,0.53224 1,1 0.28941,2.31532 0,4.66667 0,7 0,4.33334 0,8.66667 0,13 0,3.33334 0,6.66667 0,10 0,0.66667 0.24759,1.38102 0,2 -0.44636,1.11589 -1.52657,1.89533 -2,3 -0.54139,1.26325 -0.53032,2.70838 -1,4 -0.86755,2.38575 -2.13246,4.61425 -3,7 -0.46968,1.29163 -0.44182,2.74409 -1,4 -0.78939,1.77613 -2.13078,3.26155 -3,5 -0.80278,1.60555 -1.19723,3.39446 -2,5 -2.90536,5.81071 -2.65026,3.9754 -6,9 -0.65052,0.97578 -3.75701,6.50841 -5,8 -1.91446,2.29735 -4.39611,4.51207 -7,6 -5.65049,3.22885 -2.43538,0.43538 -6,4 -1.20402,1.20402 -2.95943,3.59189 -5,4 -0.98058,0.19612 -2.02986,-0.24253 -3,0 -0.45733,0.11434 -0.66667,0.66667 -1,1 -1,0 -2,0 -3,0 -0.24253,0 -2.96784,0.0322 -3,0 -0.2357,-0.2357 0.2357,-0.76429 0,-1 -0.2357,-0.2357 -0.7643,0.23571 -1,0 -0.2357,-0.2357 0,-0.66666 0,-1 0,-1.33333 0,-2.66666 0,-4 0,-1.61274 -0.21431,-4.49987 0,-6 0.24037,-1.68259 0.8123,-3.31072 1,-5 0.14724,-1.32518 -0.18856,-2.68006 0,-4 0.35076,-2.4553 3.40584,-7.71266 4,-9 0.47962,-1.03917 3.68955,-9.03433 5,-11 0.81893,-3.35762 4.15609,-4.54145 6,-7 0.44721,-0.59628 0.47295,-1.47295 1,-2 3.90273,-3.90273 0.53705,0.23148 3,-1 2.54054,-1.27027 -1.02412,-1.19517 3,-2 0.62692,-0.12538 5.2494,0.2502 6,0 0.44721,-0.14907 0.66666,-0.66666 1,-1 0.66666,0 1.34628,0.13075 2,0 1.03362,-0.20672 2,-0.66666 3,-1 6.80942,-2.26981 -1.56592,0.58722 8,-3 1.97395,-0.74023 4.06227,-1.16954 6,-2 3.15468,-1.352 8.60676,-4.60676 11,-7 1.17851,-1.17851 1.90249,-2.7457 3,-4 1.24169,-1.41907 2.75831,-2.58092 4,-4 1.09751,-1.25429 1.98381,-2.67896 3,-4 2.31726,-3.01243 4.65191,-6.01153 7,-9 0.35629,-0.45346 6.37764,-7.85901 7,-9 1.21561,-2.22861 1.86471,-4.72941 3,-7 0.86922,-1.73845 2.34628,-3.16958 3,-5 1.03362,-2.89414 1.02817,-6.08452 2,-9 0.7071,-2.12132 2.16954,-3.92386 3,-6 12.24793,-30.61983 -3.93332,5.86664 6,-14 0.80277,-1.60554 1.35561,-3.32459 2,-5 2.3242,-6.04293 4.36046,-10.60458 5,-17 0.13267,-1.32671 0,-2.66666 0,-4 0,-0.66666 -0.16169,-1.35323 0,-2 0.18077,-0.7231 0.66666,-1.33333 1,-2 0.33333,-1.33333 0.77405,-2.64433 1,-4 0.1096,-0.65759 0,-1.33333 0,-2 0,-1.33333 0,-2.66666 0,-4 0,-2.33333 0,-4.66666 0,-7 0,-3 0,-6 0,-9 0,-0.33333 0.2357,-0.76429 0,-1 -0.2357,-0.2357 -0.7643,0.23571 -1,0 -0.2357,-0.2357 0.2357,-0.76429 0,-1 -0.68968,-0.68967 -1.86983,0.73965 -2,1 -0.14907,0.29815 0.2357,0.7643 0,1 -0.2357,0.23571 -0.7643,-0.2357 -1,0 -0.35102,0.35102 0.34536,4.30927 0,5 -0.21082,0.42164 -0.82493,0.56232 -1,1 -2.11528,5.28819 0.12144,2.46427 -2,6 -0.61835,1.03058 -1.52657,1.89533 -2,3 -1.22146,2.85007 -1.17283,7.24277 -2,10 -0.42836,1.42785 -1.44637,2.61591 -2,4 -2.86044,7.15109 -1.32618,4.30472 -3,11 -0.58856,2.35425 -1.45434,4.63545 -2,7 -3.68379,15.96307 0.98083,-2.86583 -1,11 -0.10541,0.73787 -0.89459,1.26214 -1,2 -0.32999,2.30989 0,4.66667 0,7 0,1 0.24253,2.02986 0,3 -0.11433,0.45733 -0.88567,0.54267 -1,1 -0.24254,0.97015 0.14142,2.01005 0,3 -0.6235,4.36452 -1.05023,3.20091 -2,7 -0.41223,1.64893 -0.75963,3.31741 -1,5 -0.18519,1.2963 0.27778,3.88889 0,5 -0.11433,0.45733 -0.88567,0.54267 -1,1 -0.24254,0.97015 0,2 0,3 0,1 0,2 0,3 0,0.33334 0,0.66667 0,1 0,0.33334 0.14907,0.70186 0,1 -0.21082,0.42164 -0.78918,0.57837 -1,1 -0.14907,0.29815 0,0.66667 0,1 0,0.33334 0,0.66667 0,1 0,5.06755 0.29814,-1.19257 -1,4 -0.2232,0.89279 0,3.84248 0,5 0,0.33334 0.10541,0.68378 0,1 -0.2357,0.70711 -0.81923,1.2769 -1,2 -0.24254,0.97015 0.31623,2.05132 0,3 -0.47141,1.41422 -1.63845,2.5538 -2,4 -0.16169,0.64676 0.21082,1.36755 0,2 -0.14907,0.44722 -0.78918,0.57837 -1,1 -0.14907,0.29815 0.14907,0.70186 0,1 -0.21082,0.42164 -0.78918,0.57837 -1,1 -0.14907,0.29815 0.2357,0.7643 0,1 -0.2357,0.23571 -0.7643,-0.2357 -1,0 -0.2357,0.23571 0.2357,0.7643 0,1 -0.2357,0.23571 -0.7643,-0.2357 -1,0 -0.2357,0.23571 0,0.66667 0,1 0,0.33334 0,1.33334 0,1 0,-2 0,-4 0,-6 0,-0.66666 0,-1.33333 0,-2 0,-0.33333 -0.10541,-0.68377 0,-1 0.2357,-0.7071 0.66666,-1.33333 1,-2 0.33333,-0.66666 0.58655,-1.37982 1,-2 0.9245,-1.38675 2.1731,-2.55292 3,-4 0.52297,-0.91521 0.52859,-2.05719 1,-3 0.21082,-0.42163 0.75746,-0.59577 1,-1 0.76696,-1.27827 1.2604,-2.7057 2,-4 1.78888,-3.13055 2.8537,-3.78055 5,-7 0.41345,-0.62017 0.66666,-1.33333 1,-2 1.29256,-2.58511 2.12029,-4.3684 4,-7 0.54799,-0.76719 1.33333,-1.33333 2,-2 1,-1 2.09464,-1.91357 3,-3 0.18933,-0.2272 2.07797,-3.53898 3,-4 0.29814,-0.14907 0.66666,0 1,0 2.66666,0 -0.33334,0.33334 1,-1 0.2357,-0.2357 0.70186,0.14907 1,0 0.84327,-0.42163 1.15672,-1.57836 2,-2 2.42163,-1.21082 2.71169,-1 5,-1 0.33333,0 0.7643,-0.2357 1,0 0.0322,0.0322 0,2.75748 0,3 0,2 0,4 0,6 0,0.33334 0,0.66667 0,1 0,0.33334 0.14907,0.70186 0,1 -0.21082,0.42164 -0.85093,0.55279 -1,1 -0.21082,0.63246 0.29814,1.40372 0,2 -0.14907,0.29815 -0.7643,-0.2357 -1,0 -0.2357,0.23571 0.10541,0.68378 0,1 -0.2357,0.70711 -0.81923,1.2769 -1,2 -0.32871,1.31482 0.41398,3.75806 0,5 -0.14907,0.44722 -0.78918,0.57837 -1,1 -0.29501,0.59002 0.22927,2.31217 0,3 -0.2357,0.70711 -0.72318,1.30796 -1,2 -0.78296,1.9574 -1.33334,4 -2,6 -0.33334,1 -0.82671,1.96025 -1,3 -0.1644,0.9864 0,2 0,3 0,1.66667 0,3.33334 0,5 0,0.33334 -0.2357,0.7643 0,1 0.2357,0.23571 0.66666,0 1,0 0.33333,0 0.70186,0.14907 1,0 0.42163,-0.21082 0.60777,-0.73851 1,-1 0.62017,-0.41345 1.36086,-0.61651 2,-1 2.41547,-0.39936 3.22409,-2.81606 5,-4 0.27735,-0.1849 0.70186,0.14907 1,0 0.42163,-0.21082 0.66666,-0.66666 1,-1 0.66666,-0.66666 1.41103,-1.26379 2,-2 0.75079,-0.93848 1.15016,-2.15016 2,-3 1.50923,-1.50923 3.31522,-2.68962 5,-4 1.31558,-1.02323 2.68441,-1.97676 4,-3 1.68477,-1.31038 3.31522,-2.68962 5,-4 15.22126,-11.83876 -13.42308,10.98252 11,-9 1.28993,-1.05539 2.82149,-1.82149 4,-3 1.50923,-1.50923 2.49077,-3.49077 4,-5 9.86119,-9.86119 -3.28528,6.94234 10,-9 1.53881,-1.84657 2.49842,-4.12302 4,-6 1.17793,-1.47242 2.80595,-2.54061 4,-4 1.81577,-2.21927 3.49718,-4.55792 5,-7 7.84086,-12.74139 -3.01521,1.42129 8,-14 1.5132,-2.11848 3.46874,-3.89452 5,-6 3.83425,-5.2721 2.85062,-5.70125 6,-12 0.86922,-1.73845 2.06928,-3.29367 3,-5 2.46785,-4.52439 4.37622,-9.12866 6,-14 1.09042,-3.27125 2.43071,-6.58427 3,-10 0.1096,-0.65759 0,-1.33333 0,-2 0,-1.33333 0,-2.66666 0,-4 0,-0.24252 0.0322,-2.96784 0,-3 -0.23571,-0.2357 -0.70186,-0.14907 -1,0 -0.42164,0.21082 -0.60777,0.73852 -1,1 -0.62018,0.41345 -1.37983,0.58655 -2,1 -0.78447,0.52298 -1.33334,1.33334 -2,2 -2.50757,2.50757 -5.2113,4.86977 -7,8 -0.52298,0.91521 -0.38732,2.14225 -1,3 -11.7752,16.48529 4.79076,-11.31793 -8,10 -0.76697,1.27828 -1.33334,2.66667 -2,4 -1,2 -2.16955,3.92387 -3,6 -0.51043,1.27607 -0.48958,2.72393 -1,4 -0.83046,2.07614 -2.13998,3.93594 -3,6 -0.81084,1.94602 -1.21704,4.0426 -2,6 -0.55364,1.38409 -1.38314,2.64291 -2,4 -1.05048,2.31105 -2.02362,4.65669 -3,7 -1.27693,3.06462 -4.1951,10.58528 -5,13 -0.76739,2.30218 -1.30269,4.67564 -2,7 -0.6,2 -2.8,8 -3,9 -0.26149,1.30744 0.18856,2.68007 0,4 -0.14907,1.0435 -0.82671,1.96025 -1,3 -0.1644,0.9864 0,2 0,3 0,1.66667 0,3.33334 0,5 0,1.66667 0,3.33334 0,5 0,0.66667 0,1.33334 0,2 0,0.33334 -0.14907,0.70186 0,1 0.21082,0.42164 0.78918,0.57837 1,1 0.29814,0.59629 -0.47141,1.5286 0,2 0.2357,0.23571 0.7643,-0.2357 1,0 0.2357,0.23571 -0.2357,0.7643 0,1 0.2357,0.23571 0.7643,-0.2357 1,0 0.2357,0.23571 0,0.66667 0,1 0.33333,0 0.70185,-0.14907 1,0 0.42163,0.21082 0.66666,0.66667 1,1 0.33333,0.33334 0.78918,0.57837 1,1 0.14907,0.29815 -0.2357,0.7643 0,1 0.0453,0.0453 4.5285,0 5,0 0.69554,0 4.63836,0.18082 5,0 0.42163,-0.21082 0.57836,-0.78918 1,-1 0.39649,-0.19824 2.79556,0.20444 3,0 0.2357,-0.2357 -0.23571,-0.76429 0,-1 0.2357,-0.2357 0.76429,0.23571 1,0 0.4714,-0.4714 -0.47141,-1.52859 0,-2 0.2072,-0.2072 3.94655,0.1069 4,0 0.29814,-0.59628 -0.3698,-1.4453 0,-2 1.95136,-2.92705 1.40972,-0.20486 3,-1 0.42163,-0.21082 0.60776,-0.73851 1,-1 0.62017,-0.41345 1.40371,-0.55278 2,-1 0.75424,-0.56568 1.33333,-1.33333 2,-2 1,-1 2.178,-1.8492 3,-3 0.86646,-1.21304 1.33333,-2.66666 2,-4 0.33333,-0.66666 0.72318,-1.30795 1,-2 0.39148,-0.9787 0.60852,-2.0213 1,-3 0.27682,-0.69204 0.76429,-1.29289 1,-2 0.43461,-1.30384 0.48957,-2.72393 1,-4 0.17507,-0.43768 0.52859,-1 1,-1 0.33333,0 0.14907,0.70186 0,1 -0.21082,0.42164 -0.81431,0.56671 -1,1 -0.83046,1.93773 -1.21704,4.0426 -2,6 -0.55364,1.38409 -1.39457,2.63777 -2,4 -0.72904,1.64035 -1.33334,3.33334 -2,5 -0.66667,1.66667 -1.6106,3.24769 -2,5 -0.2085,0.93824 0,7.56 0,9 0,0.89373 -0.15934,4.68133 0,5 0.21082,0.42164 0.73851,0.60777 1,1 0.41345,0.62018 0.47295,1.47296 1,2 0.2357,0.23571 0.66666,0 1,0 0.33333,0 0.66666,0 1,0 0.33333,0 0.66666,0 1,0 0.33333,0 0.76429,0.23571 1,0 0.2357,-0.2357 -0.23571,-0.76429 0,-1 0.2357,-0.2357 0.66666,0 1,0 0.66666,-0.66666 1.41103,-1.26379 2,-2 0.75079,-0.93848 1.33333,-2 2,-3 1,-1.33333 1.93302,-2.71963 3,-4 0.60357,-0.72428 1.41103,-1.26379 2,-2 2.10824,-2.6353 1.94587,-3.96391 5,-6 0.87706,-0.5847 2.03676,-0.57189 3,-1 2.04334,-0.90815 4.13948,-1.75965 6,-3 1.17669,-0.78446 1.78732,-2.27239 3,-3 2.17682,-1.30609 4.68895,-1.94952 7,-3 1.35709,-0.61686 2.62982,-1.41278 4,-2 0.96886,-0.41522 2.05719,-0.52859 3,-1 0.42163,-0.21082 0.57836,-0.78918 1,-1 0.29814,-0.14907 0.76429,0.23571 1,0 0.2357,-0.2357 -0.23571,-0.76429 0,-1 0.2357,-0.2357 0.70185,0.14907 1,0 0.42163,-0.21082 0.57836,-0.78918 1,-1 0.29814,-0.14907 0.66666,0 1,0 1.03451,0 1.38215,-0.2357 2,1 0.14907,0.29815 -0.23571,0.7643 0,1 0.2357,0.23571 0.76429,-0.2357 1,0 0.2357,0.23571 0,0.66667 0,1 0,1.33334 0,2.66667 0,4 0,1.72881 0.10451,2.34323 -1,4 -0.52298,0.78447 -1.47703,1.21554 -2,2 -0.41345,0.62018 -0.58655,1.37983 -1,2 -2,3 0,-2 -3,3 -0.54233,0.90388 -0.4153,2.12295 -1,3 -2.64977,3.97465 -2.19746,2.13164 -5,4 -0.39224,0.26149 -0.66667,0.66667 -1,1 -0.33334,0.33334 -0.78918,0.57837 -1,1 -0.14907,0.29815 0.33333,1 0,1 -1.5136,0 0.42601,-1.23468 1,-2 2.43026,-3.24034 2.9697,-4.9394 5,-9 0.66666,-1.33333 1.14513,-2.77876 2,-4 2.19655,-3.13793 7.06334,-8.38964 10,-11 1.24568,-1.10727 2.82149,-1.82149 4,-3 0.84983,-0.84983 1.24921,-2.06151 2,-3 1.17793,-1.47242 2.66666,-2.66666 4,-4 0.66666,-0.66666 1.19154,-1.51493 2,-2 0.90387,-0.54232 2.0213,-0.60852 3,-1 0.69204,-0.27681 1.29289,-0.76429 2,-1 0.31622,-0.10541 0.66666,0 1,0 1.54239,0 4.83074,0.23386 6,0 0.73088,-0.14617 1.29289,-0.76429 2,-1 0.31622,-0.10541 0.66666,0 1,0 0.33333,0 0.76429,-0.2357 1,0 0.5,0.5 -0.5,2.5 0,3 0.2357,0.23571 0.85093,-0.29814 1,0 0.11757,0.23515 0,3.34308 0,4 0,1.0919 0.21557,4.3533 0,5 -0.96822,2.90465 -1.04649,1.39532 -3,4 -0.44722,0.59629 -0.55279,1.40372 -1,2 -1.49425,1.99233 -2.39487,1.57946 -3,4 -0.16169,0.64676 0.16169,1.35324 0,2 -0.36155,1.44621 -1.5286,2.58579 -2,4 -0.43462,1.30384 -0.80564,2.63945 -1,4 -0.14142,0.98995 0,2 0,3 0,1.66667 0,3.33334 0,5 0,0.98771 -0.19712,4.60576 0,5 0.21082,0.42164 0.54267,0.88567 1,1 0.97014,0.24254 2,0 3,0 1,0 2.0136,0.1644 3,0 7.32348,-1.22058 13.85702,-5.26837 21,-7 7.24374,-1.75606 14.67808,-2.60535 22,-4 6.67861,-1.27211 13.3009,-2.84054 20,-4 55.64619,-9.63107 11.09329,-0.59858 51,-9"
           id="path4464"
           inkscape:connector-curvature="0" />
        <path
           style="fill:none;fill-rule:evenodd;stroke:#ffffff;stroke-width:4.69999981;stroke-linecap:butt;stroke-linejoin:miter;stroke-miterlimit:4;stroke-dasharray:none;stroke-opacity:1"
           d="m 678,818.3622 c 2.55214,-1.02085 5.44786,-0.97914 8,-2 0.43769,-0.17507 0.60776,-0.73851 1,-1 7.25058,-3.62529 -1.58114,1.0541 3,-2 3.63245,-2.42163 0.70716,0.29284 3,-2"
           id="path4468"
           inkscape:connector-curvature="0" />
      </g>
      <g
         style="stroke:#ffffff;stroke-width:4.76999998;stroke-miterlimit:4;stroke-dasharray:none;stroke-opacity:1;filter:url(#filter4700)"
         id="g4624"
         transform="matrix(0.67220981,0.07677756,-0.07677756,0.67220981,-30.375018,7.975763)">
        <path
           style="fill:none;fill-rule:evenodd;stroke:#ffffff;stroke-width:4.76999998;stroke-linecap:butt;stroke-linejoin:miter;stroke-miterlimit:4;stroke-dasharray:none;stroke-opacity:1"
           d="m 270,984.3622 c 1.66667,-0.33333 3.38755,-0.46251 5,-1 2.23383,-0.74461 7.29119,-4.00319 9,-5 4.62558,-2.69825 10.69435,-5.92454 15,-9 4.44874,-3.17767 8.75074,-6.56012 13,-10 7.81098,-6.32317 11.48198,-10.48197 19,-18 2.66667,-2.66666 5.62188,-5.07309 8,-8 1.983,-2.44061 3.21846,-5.40867 5,-8 12.50357,-18.18701 -0.77041,4.39329 13,-22 1.58747,-3.04265 3.25997,-6.04194 5,-9 1.5944,-2.71049 3.59366,-5.18733 5,-8 1.27616,-2.55232 7.61977,-18.54944 9,-22 1.33333,-3.33333 2.60683,-6.69122 4,-10 1.27397,-3.02568 2.96184,-5.88551 4,-9 2.55628,-7.66884 3,-15.99516 3,-24 0,-2.33333 0,-4.66666 0,-7 0,-0.33333 0.10541,-0.68377 0,-1 -0.47141,-1.41421 -1.63845,-2.55379 -2,-4 -0.16169,-0.64676 0.29814,-1.40371 0,-2 -0.04,-0.08 -2.84,-0.08 -3,0 -3.55556,1.77778 -2.77778,1.88889 -5,5 -0.96873,1.35623 -2.1906,2.54307 -3,4 -0.87176,1.56916 -1.33333,3.33334 -2,5 -2,3.66667 -3.90735,7.38542 -6,11 -1.57559,2.72148 -3.49417,5.23932 -5,8 -2.49841,4.58042 -4.58657,9.37425 -7,14 -1.58747,3.04265 -3.46522,5.93044 -5,9 -3.07571,6.15143 -6.28037,14.95637 -9,21 -13.42178,29.82619 5.43612,-14.97859 -7,17 -1.1899,3.05973 -3.05665,5.8555 -4,9 -1.07088,3.56961 -1.09612,7.3845 -2,11 -2.61035,10.44141 -5.28706,18.25352 -9,28 -1.27806,3.35492 -2.91891,6.57654 -4,10 -0.92543,2.93054 -1.02818,6.08453 -2,9 -1.03816,3.11449 -2.65279,6.00621 -4,9 -1.65282,3.67293 -3.43703,7.28795 -5,11 -4.14845,9.85257 -1.44109,5.64199 -6,14 -0.93072,1.7063 -2.1855,3.2352 -3,5 -1.19348,2.5859 -1.63623,5.4997 -3,8 -0.6772,1.2415 -2.07964,1.9262 -3,3 -1.08465,1.2654 -2.0755,2.6132 -3,4 -0.41345,0.6202 -0.47295,1.473 -1,2 -0.2357,0.2357 -0.7643,0.2357 -1,0 -0.2357,-0.2357 0,-0.6667 0,-1 0,-0.3333 0,-0.6667 0,-1 0,-0.9824 -0.22047,-5.3386 0,-6 0.2357,-0.7071 0.69728,-1.3189 1,-2 1.03102,-2.3198 1.7405,-4.7959 3,-7 2.88412,-5.0472 6.45924,-8.49357 10,-13 8.79546,-11.19422 3.6896,-6.459 16,-18 1.89929,-1.78058 3.89452,-3.46874 6,-5 2.77,-2.01454 4.85567,-3.21392 8,-4 4.52297,-1.13074 3.74384,-1 7,-1 0.33333,0 0.70186,-0.14907 1,0 0.42164,0.21082 0.60777,0.73851 1,1 3.63245,2.42164 0.70716,-0.29283 3,2 0.33333,0.33334 0.66667,0.66667 1,1 0.33333,0.33334 0.78918,0.57837 1,1 0.14907,0.29815 0,0.66667 0,1 0,1.66667 0,3.33334 0,5 0,1.05065 0.19847,4.00765 0,5 -0.20673,1.03363 -0.66667,2 -1,3 -0.33333,1.33334 -0.75415,2.6478 -1,4 -0.42164,2.31901 -0.57836,4.681 -1,7 -1.24254,6.8339 -1,1.26952 -1,7 0,0.3333 -0.14907,0.7019 0,1 0.21082,0.4216 0.66667,0.6667 1,1 2.33803,2.338 -0.58926,-0.1179 5,1 0.46225,0.092 0.53775,0.9075 1,1 1.30744,0.2615 2.66667,0 4,0 0.66667,0 1.36754,0.2108 2,0 0.44721,-0.1491 0.6164,-0.726 1,-1 1.95597,-1.3971 4.20345,-2.4031 6,-4 1.24568,-1.1073 1.89273,-2.75432 3,-4 1.56592,-1.76166 3.41449,-3.25594 5,-5 6.29098,-6.92008 4.93004,-5.98674 10,-15 1.31754,-2.34229 2.72589,-4.6338 4,-7 1.06012,-1.96879 1.93988,-4.0312 3,-6 1.2741,-2.36619 2.79815,-4.5963 4,-7 0.4714,-0.94281 0.79327,-1.96637 1,-3 0.13074,-0.65372 0,-1.33333 0,-2 0,-0.33333 -0.14907,-0.70185 0,-1 0.21082,-0.42163 0.78918,-0.57836 1,-1 0.29814,-0.59628 -0.66667,-2 0,-2 0.33333,0 0.14907,0.70186 0,1 -1.2357,2.47141 -1,-0.34518 -1,2 0,1 0.31623,2.05132 0,3 -0.14907,0.44722 -0.66667,0.66667 -1,1 -0.66667,1.66667 -1.52769,3.2682 -2,5 -0.5335,1.95615 -0.46651,4.04386 -1,6 -0.47231,1.73181 -1.33333,3.33334 -2,5 -0.66667,2 -1.48869,3.95476 -2,6 -0.49176,1.96705 -0.60236,4.01179 -1,6 -0.26954,1.34768 -0.80564,2.63945 -1,4 -0.14142,0.98995 0,2 0,3 0,1.33334 0,2.66667 0,4 0,0.94184 -0.18962,4.43114 0,5 0.14907,0.4472 0.71716,0.6229 1,1 2.5865,3.4487 1.69177,3.9229 6,5 0.52011,0.13 4.78956,0.07 5,0 0.44721,-0.1491 0.66667,-0.6667 1,-1 1,-1 1.92625,-2.0796 3,-3 6.03522,-5.17304 4.02328,-1.0466 9,-11 0.94281,-1.88562 0.93774,-4.17899 2,-6 1.31178,-2.24877 3.55588,-3.83382 5,-6 4.89887,-7.34831 4.63487,-8.70888 8,-16 0.93704,-2.03026 1.93988,-4.0312 3,-6 1.62705,-3.02167 3.72543,-5.81358 5,-9 1.10541,-2.76352 1,-2.12069 1,-4 0,-0.33333 0.33333,-1 0,-1 -0.47141,0 -0.78918,0.57837 -1,1 -0.14907,0.29815 0.14907,0.70186 0,1 -0.53749,1.07497 -1.33334,2 -2,3 -0.66667,1.33334 -1.38314,2.64291 -2,4 -1.05048,2.31105 -1.98249,4.67425 -3,7 -1.31587,3.0077 -2.83129,5.93212 -4,9 -1.50101,3.94015 -2.78844,7.96145 -4,12 -2.24254,7.47512 -2,5.79516 -2,11 0,0.66667 -0.13075,1.34628 0,2 0.703,3.51499 2.69949,5.6798 6,7 1.17892,0.4716 6.05177,2 7,2 3.93362,0 7.85422,-3.21049 10,-6 1.8178,-2.36315 2.43744,-5.46084 4,-8 1.11862,-1.81776 2.78509,-3.24513 4,-5 1.78997,-2.58551 3.38208,-5.30347 5,-8 1.38266,-2.30444 2.41076,-4.83285 4,-7 16.75987,-22.85437 -0.96527,3.20659 12,-13 1.21419,-1.51773 1.76921,-3.49569 3,-5 1.79106,-2.18908 4,-4 6,-6 2.66666,-2.66666 5.33333,-5.33333 8,-8 5.52704,-5.52704 2.89181,-3.9459 7,-6 0.86449,-0.43224 2.49455,-1.50544 3,-1 0.2357,0.23571 0,0.66667 0,1 0,0.33334 0.2357,0.7643 0,1 -0.52705,0.52705 -1.37983,0.58655 -2,1 -1.38675,0.9245 -2.74571,1.9025 -4,3 -1.41907,1.24169 -2.66667,2.66667 -4,4 -1,1 -1.88369,2.13176 -3,3 -3.01512,2.34509 -8.35039,5.01919 -11,8 -1.29129,1.45271 -1.83381,3.44508 -3,5 -17.19482,22.92642 2.46097,-6.10161 -9,13 -0.85749,1.42916 -2.43043,2.43368 -3,4 -0.8055,2.21512 -0.76547,4.65468 -1,7 -0.0995,0.99504 -0.31623,2.05132 0,3 0.38006,1.14018 1.40371,1.9565 2,3 0.7396,1.2943 1.02986,2.86817 2,4 1.08465,1.26543 2.7457,1.90249 4,3 1.41907,1.24169 2.55143,2.79286 4,4 2.25205,1.87672 4.71332,1.30668 7,0 1.68756,-0.96432 3.4077,-1.88539 5,-3 5.84425,-4.09098 6.78641,-5.91747 12,-12 1.69428,-1.97666 3.46043,-3.90059 5,-6 2.13219,-2.90753 4.04128,-5.97288 6,-9 4.80163,-7.42071 7.32184,-11.91954 12,-20 1.34649,-2.32576 2.59153,-4.71123 4,-7 1.25977,-2.04713 2.70951,-3.97209 4,-6 1.0435,-1.63978 1.92185,-3.38278 3,-5 0.7619,-1.14285 2.00338,-0.99323 1,-3 -0.14907,-0.29814 -0.7643,-0.2357 -1,0 -0.2357,0.23571 0.14907,0.70186 0,1 -0.21082,0.42164 -0.66667,0.66667 -1,1 -0.66667,0.66667 -1.43432,1.24576 -2,2 -0.44722,0.59629 -0.61652,1.36087 -1,2 -1.8455,3.07582 -2.6798,3.36945 -4,7 -0.82931,2.2806 -1.04408,4.76951 -2,7 -1.05863,2.47013 -2.79815,4.5963 -4,7 -1.13529,2.27059 -1.94953,4.68895 -3,7 -2.17804,4.79169 -2.19864,3.59592 -4,9 -0.43462,1.30384 -0.66667,2.66667 -1,4 -0.33334,1.33334 -0.82953,2.63625 -1,4 -0.24807,1.98456 0,4 0,6 0,1.66667 0,3.33334 0,5 0,0.33334 0,0.66667 0,1 0,0.33334 -0.14907,0.70186 0,1 0.21082,0.42164 0.57836,0.78918 1,1 0.29814,0.14907 0.66666,0 1,0 0.33333,0 0.66666,0 1,0 0.66666,0 1.35324,0.16169 2,0 1.59368,-0.39842 6.04602,-2.04602 7,-3 1.37437,-1.37437 1.94895,-3.36504 3,-5 1.94973,-3.03291 3.86781,-6.09246 6,-9 1.53956,-2.09941 3.59218,-3.81006 5,-6 1.61223,-2.50791 2.46607,-5.44345 4,-8 0.48507,-0.80845 1.57836,-1.15672 2,-2 1.27366,-2.54733 1.87812,-5.38227 3,-8 0.88083,-2.05527 2.33303,-3.86572 3,-6 1.01394,-3.24461 1.33333,-6.66666 2,-10 0.33333,-1.66666 0.85885,-3.30619 1,-5 0.19377,-2.32527 0,-4.66666 0,-7 0,-0.39531 0.21354,-4.57291 0,-5 -0.21082,-0.42163 -0.57837,-0.78918 -1,-1 -1.6,-0.8 -0.73334,0.46667 -1,1 -0.21082,0.42164 -0.66667,0.66667 -1,1 -0.33334,0.66667 -0.72318,1.30796 -1,2 -0.39148,0.9787 -0.5286,2.05719 -1,3 -0.21082,0.42164 -0.85093,0.55279 -1,1 -0.31623,0.94869 0,2 0,3 0,2.35772 0.25525,5.95798 0,8 -0.17047,1.36376 -0.73047,2.65232 -1,4 -0.39764,1.98822 -0.64764,4.00327 -1,6 -0.64766,3.67007 -1.56456,7.29875 -2,11 -0.21598,1.83577 0,10.72357 0,13 0,1.66667 0,3.33334 0,5 0,0.66667 -0.16169,1.35324 0,2 0.18077,0.7231 0.70639,1.31491 1,2 0.7071,1.64992 1.36971,3.31924 2,5 1.12355,2.99613 0.4108,3.05811 3,5 0.59628,0.44722 1.26912,0.85383 2,1 3.69356,0.73871 2.18817,0.35888 4,-1 0.96148,-0.72111 2,-1.33333 3,-2 3.97468,-2.64978 5.39482,-3.31327 9,-8 1.63855,-2.13011 2.50929,-4.76393 4,-7 3.48258,-5.22387 7.51742,-9.77613 11,-15 1.07814,-1.61721 2.34628,-3.16958 3,-5 1.03362,-2.89414 1.02817,-6.08452 2,-9 3.36854,-6.73709 2.83431,-4.96152 5,-12 0.66666,-2.33333 1.33333,-4.66666 2,-7 0,-1.33333 -0.26149,-2.69256 0,-4 0.0924,-0.46225 0.66666,-0.66666 1,-1 0.33333,-1.66666 0.75963,-3.31741 1,-5 0.052,-0.3639 -0.0556,-3.8888 0,-4 0.14907,-0.29814 0.7643,-0.2357 1,0 0.4714,0.47141 -0.29814,1.40372 0,2 0.21082,0.42164 0.88567,0.54267 1,1 0.24253,0.97015 0,2 0,3 0.33333,1.33334 0.62243,2.67851 1,4 0.28958,1.01354 0.88359,1.95236 1,3 0.22086,1.98777 0,4 0,6 0,3.86743 -0.0716,6.97705 -1,11 -0.47405,2.0542 -1.29836,4.012 -2,6 -1.29852,3.67914 -2.17451,7.55185 -4,11 -1.21811,2.30087 -3.30572,4.02334 -5,6 -9.08716,10.60169 -3.70962,5.49674 -13,12 -1.36539,0.95577 -2.71963,1.93303 -4,3 -0.72429,0.60357 -1.15673,1.57837 -2,2 -0.29814,0.14907 -0.10541,-0.68377 0,-1 0.2357,-0.7071 0.66666,-1.33333 1,-2 2.73926,-5.47852 1.37696,-3.45235 6,-9 0.30178,-0.36214 0.57836,-0.78918 1,-1 1.60554,-0.80277 3.24769,-1.6106 5,-2 3.5618,-0.79151 10.79174,1.53511 13,2 11.81113,2.48656 9.40925,1.56616 22,5 7.02358,1.91553 13.91341,4.33257 21,6 4.26777,1.00418 8.63002,1.64568 13,2 15.69214,1.27234 26.03047,1.91074 41,-1 6.42856,-1.25 12.66311,-3.3469 19,-5 8.99647,-2.3469 18.04679,-4.4931 27,-7 19.0337,-5.32943 19.06527,-7.12532 35,-9 1.65525,-0.19473 3.33333,0 5,0"
           id="path4620"
           inkscape:connector-curvature="0" />
        <path
           style="fill:none;fill-rule:evenodd;stroke:#ffffff;stroke-width:4.76999998;stroke-linecap:butt;stroke-linejoin:miter;stroke-miterlimit:4;stroke-dasharray:none;stroke-opacity:1"
           d="m 516,927.3622 c 1.33333,-1 2.66666,-2 4,-3 0.33333,0 0.70186,0.14907 1,0 0.42163,-0.21082 0.57836,-0.78918 1,-1 0.29814,-0.14907 0.70186,0.14907 1,0 0.42163,-0.21082 0.57836,-0.78918 1,-1 0.29814,-0.14907 0.7643,0.23571 1,0 0.2357,-0.2357 -0.2357,-0.76429 0,-1 0.2357,-0.2357 0.7643,0.23571 1,0 1.33333,-1.33333 -1.66667,-1 1,-1"
           id="path4622"
           inkscape:connector-curvature="0" />
      </g>
    </g>
  </g>
</svg>
